<svg xmlns="http://www.w3.org/2000/svg" width="108" height="108" viewBox="0 0 108 108"><defs><style>.a{fill:#55cdfc;}.b{fill:#f7a8b8;}.c{fill:#10384f;}.d{fill:none;}</style></defs><path class="a" d="M79.9316,52.3579a25.9824,25.9824,0,0,0-51.8632,0A13.2714,13.2714,0,0,0,28.2053,54a25.4853,25.4853,0,0,0,4.8579,12.1789A25.88,25.88,0,0,0,54,76.7842,22.7907,22.7907,0,0,1,31.2842,55.6421,13.1878,13.1878,0,0,1,31.2158,54a13.1878,13.1878,0,0,1,.0684-1.6421A22.7907,22.7907,0,0,1,54,31.2158,25.88,25.88,0,0,1,74.9368,41.8211,25.4853,25.4853,0,0,1,79.7947,54a13.343,13.343,0,0,1,.1369,1.5737c0-.5474.0684-1.0948.0684-1.6421a12.6507,12.6507,0,0,0-.0684-1.5737"/><path class="b" d="M28.0684,55.6421a25.9824,25.9824,0,0,0,51.8632,0A13.2714,13.2714,0,0,0,79.7947,54a25.4862,25.4862,0,0,0-4.8578-12.1789A25.8807,25.8807,0,0,0,54,31.2158,22.7907,22.7907,0,0,1,76.7158,52.3579,13.1878,13.1878,0,0,1,76.7842,54a13.1878,13.1878,0,0,1-.0684,1.6421A22.74,22.74,0,0,1,54,76.7842,25.88,25.88,0,0,1,33.0632,66.1789,25.4853,25.4853,0,0,1,28.2053,54a13.343,13.343,0,0,1-.1369-1.5737c0,.5474-.0684,1.0948-.0684,1.6421a12.6507,12.6507,0,0,0,.0684,1.5737"/><path class="c" d="M57.0586,33.3408v1.4834H54.376v5.6465h-1.46V34.8242H50.2246V33.3408Z"/><path class="c" d="M55.7842,49.0225,54.457,46.7661H51.7559v2.2564H50.3242v-7.13h4.18a3.7509,3.7509,0,0,1,1.2139.1753,2.2565,2.2565,0,0,1,.8486.4995,2.0425,2.0425,0,0,1,.502.7778,2.9277,2.9277,0,0,1,.166,1.01v.01a2.5606,2.5606,0,0,1-.3408,1.355,2.0108,2.0108,0,0,1-1.0528.83l1.5547,2.4727Zm-4.0283-5.7286v2.1329h2.748a1.56,1.56,0,0,0,.9629-.2525.9589.9589,0,0,0,.3271-.8091v-.01a.9573.9573,0,0,0-.3271-.8086,1.5567,1.5567,0,0,0-.9629-.2525Z"/><path class="d" d="M52.8877,50.4443h1.5068l3.47,7.13H56.31l-.6826-1.4736H51.6553l-.6826,1.4736H49.418Zm2.1328,4.3169-1.374-2.8227-1.375,2.8227Z"/><path class="d" d="M55.8838,58.9971h1.4307v7.13H55.9883l-4.5977-4.75v4.75H49.9688v-7.13h1.3271l4.5879,4.75Z"/><path class="d" d="M56.0166,69.5781a1.5846,1.5846,0,0,0-.6211-.5713,2.1091,2.1091,0,0,0-.9336-.1806H52.8984a1.64,1.64,0,0,0-.8349.1758.5564.5564,0,0,0-.294.5048.5754.5754,0,0,0,.1856.4327,1.5242,1.5242,0,0,0,.7246.2783l2.5879.2773a2.6265,2.6265,0,0,1,.8867.3047,1.8076,1.8076,0,0,1,.5635.5049,1.8438,1.8438,0,0,1,.2939.6435,3.0451,3.0451,0,0,1,.086.7217,1.9219,1.9219,0,0,1-.6592,1.5293,2.7517,2.7517,0,0,1-1.8623.5723H52.9736a3.7343,3.7343,0,0,1-1.8193-.3965A2.2753,2.2753,0,0,1,50.12,73.2158l1.2324-.8447a1.6354,1.6354,0,0,0,.6592.8135,1.9721,1.9721,0,0,0,.9815.2265h1.6015a1.3991,1.3991,0,0,0,.8252-.2.6581.6581,0,0,0,.2744-.5615.6662.6662,0,0,0-.2089-.5264,1.351,1.351,0,0,0-.6534-.2675l-2.73-.3506a2.7318,2.7318,0,0,1-.8155-.2774,1.7811,1.7811,0,0,1-.5351-.4433,1.7156,1.7156,0,0,1-.2989-.5723,2.2443,2.2443,0,0,1-.0947-.6543,1.8956,1.8956,0,0,1,.6729-1.5449,2.963,2.963,0,0,1,1.9336-.5566H54.5a3.6225,3.6225,0,0,1,1.54.2939,2.1869,2.1869,0,0,1,.9717.85Z"/><path class="c" d="M40.09,50.4463V51.93H37.4072v5.6465h-1.46V51.93H33.2559V50.4463Z"/><path class="c" d="M46.8066,57.5762,45.48,55.32H42.7783v2.2559H41.3467v-7.13h4.18a3.7507,3.7507,0,0,1,1.2138.1753,2.2561,2.2561,0,0,1,.8487.4995,2.0411,2.0411,0,0,1,.5019.7778,2.9253,2.9253,0,0,1,.166,1.01v.01a2.56,2.56,0,0,1-.3408,1.355,2.0106,2.0106,0,0,1-1.0527.83l1.5547,2.4727Zm-4.0283-5.7285v2.1328h2.7481a1.56,1.56,0,0,0,.9629-.2525.9592.9592,0,0,0,.3271-.8091v-.01a.9576.9576,0,0,0-.3271-.8086,1.5567,1.5567,0,0,0-.9629-.2524Z"/><path class="c" d="M52.88,50.4463h1.5068l3.47,7.13H56.3018l-.6827-1.4737H51.6475l-.6827,1.4737H49.41Zm2.1328,4.3169L53.6387,51.94l-1.375,2.8228Z"/><path class="c" d="M64.9854,50.4463H66.416v7.13H65.09l-4.5976-4.75v4.75H59.07v-7.13h1.3272l4.5879,4.75Z"/><path class="c" d="M73.6885,52.4761a1.5815,1.5815,0,0,0-.6211-.5718,2.109,2.109,0,0,0-.9336-.1807H70.57a1.6448,1.6448,0,0,0-.8349.1753.5569.5569,0,0,0-.294.5049.5729.5729,0,0,0,.1856.4326,1.5026,1.5026,0,0,0,.7246.2783l2.5879.2784a2.6058,2.6058,0,0,1,.8867.3037,1.8184,1.8184,0,0,1,.5634.5049,1.8487,1.8487,0,0,1,.294.644,3.06,3.06,0,0,1,.0859.7207,1.9226,1.9226,0,0,1-.6591,1.53,2.7523,2.7523,0,0,1-1.8624.5722H70.6455a3.7343,3.7343,0,0,1-1.8193-.3964,2.2757,2.2757,0,0,1-1.0342-1.1592l1.2324-.8457a1.633,1.633,0,0,0,.6592.8144,1.9707,1.9707,0,0,0,.9814.2266h1.6016a1.3991,1.3991,0,0,0,.8252-.2.7357.7357,0,0,0,.0654-1.0869,1.3452,1.3452,0,0,0-.6533-.2686l-2.7305-.35a2.7346,2.7346,0,0,1-.8154-.2783,1.78,1.78,0,0,1-.5351-.4429,1.7176,1.7176,0,0,1-.2989-.5717,2.2439,2.2439,0,0,1-.0947-.6543,1.8972,1.8972,0,0,1,.6728-1.5459,2.9662,2.9662,0,0,1,1.9336-.5562h1.5362a3.63,3.63,0,0,1,1.54.2935,2.1909,2.1909,0,0,1,.9717.85Z"/><path class="c" d="M56.1367,69.5781a1.63,1.63,0,0,0-.6523-.5713,2.3064,2.3064,0,0,0-.98-.1806H52.8623a1.7887,1.7887,0,0,0-.876.1758.5507.5507,0,0,0-.3086.5048.56.56,0,0,0,.1944.4327,1.6465,1.6465,0,0,0,.7607.2783l2.7178.2773a2.8554,2.8554,0,0,1,.9306.3047,1.8577,1.8577,0,0,1,.5918.5049,1.8064,1.8064,0,0,1,.3086.6435,2.9041,2.9041,0,0,1,.09.7217,1.8823,1.8823,0,0,1-.6914,1.5293,2.9882,2.9882,0,0,1-1.9561.5723H52.9414A4.0932,4.0932,0,0,1,51.03,74.375a2.3125,2.3125,0,0,1-1.084-1.1592l1.2939-.8447a1.65,1.65,0,0,0,.6914.8135,2.1543,2.1543,0,0,0,1.03.2265h1.6817a1.5241,1.5241,0,0,0,.8662-.2.7143.7143,0,0,0,.0693-1.0879,1.4588,1.4588,0,0,0-.6865-.2675l-2.8662-.3506a2.9589,2.9589,0,0,1-.8565-.2774,1.8486,1.8486,0,0,1-.5625-.4433,1.6849,1.6849,0,0,1-.3135-.5723,2.1507,2.1507,0,0,1-.1-.6543,1.8549,1.8549,0,0,1,.7071-1.5449,3.2176,3.2176,0,0,1,2.03-.5566h1.6123a3.9652,3.9652,0,0,1,1.6172.2939,2.2653,2.2653,0,0,1,1.0205.85Z"/><path class="c" d="M55.7041,58.998h1.3164v7.13H55.8l-4.2295-4.75v4.75H50.2617v-7.13h1.2217l4.2207,4.75Z"/></svg>